<svg width="50" height="50" viewBox="0 0 50 50" fill="none" xmlns="http://www.w3.org/2000/svg">
<path opacity="0.5" d="M25 50C38.8071 50 50 38.8071 50 25C50 11.1929 38.8071 0 25 0C11.1929 0 0 11.1929 0 25C0 38.8071 11.1929 50 25 50Z" fill="#318B3A"/>
<path d="M36.0042 10.7154C36.0042 9.95303 35.5425 9.26655 34.8365 8.97895C34.1305 8.69133 33.3207 8.85983 32.788 9.4052L30.9118 11.3259C25.61 8.88663 19.1638 9.89763 14.8199 14.3445C9.2267 20.0703 9.2267 29.336 14.8199 35.0618C20.437 40.812 29.563 40.812 35.18 35.0618C38.4385 31.726 39.792 27.1948 39.2637 22.8768C39.138 21.849 38.203 21.1175 37.175 21.2433C36.1473 21.369 35.4158 22.3043 35.5415 23.332C35.9393 26.5838 34.9167 29.9648 32.4975 32.4413C28.3517 36.6855 21.6482 36.6855 17.5024 32.4413C13.3325 28.1725 13.3325 21.2338 17.5024 16.9649C20.3667 14.0326 24.4488 13.1286 28.0625 14.2426L26.1588 16.1915C25.6318 16.7311 25.4792 17.5341 25.772 18.2294C26.0647 18.9246 26.7458 19.3767 27.5 19.3767H34.1292C35.1647 19.3767 36.0042 18.5372 36.0042 17.5017V10.7154Z" fill="#44FF00"/>
</svg>
